<?xml version="1.0" encoding="UTF-8"?>
<!DOCTYPE svg PUBLIC "-//W3C//DTD SVG 1.1//EN" "http://www.w3.org/Graphics/SVG/1.1/DTD/svg11.dtd">
<!-- Creator: CorelDRAW X8 -->
<svg xmlns="http://www.w3.org/2000/svg" xml:space="preserve" width="236px" height="236px" version="1.1" shape-rendering="geometricPrecision" text-rendering="geometricPrecision" image-rendering="optimizeQuality" fill-rule="evenodd" clip-rule="evenodd"
viewBox="0 0 236 236"
 xmlns:xlink="http://www.w3.org/1999/xlink">
 <g id="Camada_x0020_1">
  <metadata id="CorelCorpID_0Corel-Layer"/>
  <path fill="#60CFFA" d="M118 3c64,0 115,51 115,115 0,64 -51,115 -115,115 -64,0 -115,-51 -115,-115 0,-64 51,-115 115,-115zm-55 185l75 -62 0 0 0 0c4,-3 6,-8 6,-14 0,-10 -8,-18 -18,-18 -4,0 -8,1 -11,4l-1 0 0 0 0 0 -74 62 0 0c-4,4 -6,9 -6,14 0,10 8,18 18,18 4,0 8,-1 11,-4zm50 -89c0,0 1,0 1,-1 0,1 -1,1 -1,1zm-15 77l-1 0c-3,3 -6,8 -6,14 0,10 8,18 18,18 5,0 9,-2 12,-4l0 0 94 -79 0 0 0 -1c4,-3 7,-8 7,-13 0,-10 -8,-18 -18,-18 -5,0 -9,1 -12,4l0 0 0 0 0 0 0 0 -94 79zm93 -78c0,0 0,-1 1,-1 -1,0 -1,1 -1,1zm-156 5l0 0c-4,3 -7,8 -7,14 0,10 8,18 18,18 5,0 9,-2 12,-4l0 0 94 -79 0 0 0 -1c4,-3 7,-8 7,-13 0,-10 -8,-18 -18,-18 -5,0 -9,1 -12,4l0 0 0 0 0 0 0 0 -94 79zm93 -78c0,0 0,-1 1,-1 -1,0 -1,1 -1,1z"/>
 </g>
</svg>
